<svg width="1200" height="700" viewBox="0 0 1200 700" fill="none" xmlns="http://www.w3.org/2000/svg">
  <defs>
    <linearGradient id="bg" x1="0" y1="0" x2="1200" y2="700" gradientUnits="userSpaceOnUse">
      <stop stop-color="#EAF8FF"/>
      <stop offset="1" stop-color="#FDF3E8"/>
    </linearGradient>
    <linearGradient id="thy" x1="450" y1="190" x2="760" y2="510" gradientUnits="userSpaceOnUse">
      <stop stop-color="#4A9ECA"/>
      <stop offset="1" stop-color="#2F7DAD"/>
    </linearGradient>
  </defs>
  <rect width="1200" height="700" rx="36" fill="url(#bg)"/>
  <ellipse cx="160" cy="130" rx="120" ry="80" fill="#D9F0FF"/>
  <ellipse cx="1060" cy="560" rx="150" ry="95" fill="#FCE5CC"/>
  <path d="M600 210C520 210 470 286 470 358C470 427 520 495 600 495C679 495 730 427 730 358C730 286 679 210 600 210Z" fill="url(#thy)"/>
  <path d="M600 290V420" stroke="#D8F2FF" stroke-width="16" stroke-linecap="round"/>
  <path d="M538 350H662" stroke="#D8F2FF" stroke-width="16" stroke-linecap="round"/>
  <rect x="416" y="518" width="368" height="84" rx="42" fill="#FFFFFF" fill-opacity="0.86"/>
  <text x="600" y="571" text-anchor="middle" fill="#2B6C92" font-size="44" font-family="Verdana, sans-serif" font-weight="700">Thyroid Care</text>
</svg>
