<svg width="1200" height="900" viewBox="0 0 1200 900" fill="none" xmlns="http://www.w3.org/2000/svg">
  <defs>
    <linearGradient id="bg" x1="0" y1="0" x2="1200" y2="900" gradientUnits="userSpaceOnUse">
      <stop stop-color="#E8F8F1"/>
      <stop offset="1" stop-color="#FFF2E4"/>
    </linearGradient>
    <linearGradient id="card" x1="200" y1="240" x2="970" y2="700" gradientUnits="userSpaceOnUse">
      <stop stop-color="#2D8E6A"/>
      <stop offset="1" stop-color="#5BB992"/>
    </linearGradient>
  </defs>
  <rect width="1200" height="900" rx="40" fill="url(#bg)"/>
  <circle cx="1010" cy="160" r="120" fill="#FFD9B5"/>
  <circle cx="200" cy="770" r="170" fill="#D3F0E2"/>
  <rect x="180" y="210" width="840" height="500" rx="42" fill="url(#card)"/>
  <rect x="240" y="276" width="390" height="56" rx="20" fill="#DDFBEA" fill-opacity="0.85"/>
  <rect x="240" y="360" width="550" height="36" rx="14" fill="#E8FFF3" fill-opacity="0.76"/>
  <rect x="240" y="414" width="480" height="36" rx="14" fill="#E8FFF3" fill-opacity="0.76"/>
  <rect x="240" y="500" width="218" height="64" rx="32" fill="#FFFFFF"/>
  <circle cx="870" cy="430" r="120" fill="#FFFFFF" fill-opacity="0.92"/>
  <path d="M835 435C856 410 897 406 923 426" stroke="#2E8B6B" stroke-width="16" stroke-linecap="round"/>
  <path d="M853 478C872 499 905 500 924 477" stroke="#2E8B6B" stroke-width="16" stroke-linecap="round"/>
  <text x="250" y="316" fill="#256A4F" font-size="34" font-family="Verdana, sans-serif" font-weight="700">Women Health Journal</text>
</svg>
